<svg width="22" height="22" viewBox="0 0 22 22" fill="none" xmlns="http://www.w3.org/2000/svg">
<path d="M21.1406 4.70508C20.3929 5.03594 19.5937 5.25938 18.7515 5.3625C19.6109 4.84688 20.2726 4.03047 20.582 3.05937C19.7785 3.53633 18.889 3.88437 17.9394 4.06914C17.1789 3.25703 16.0961 2.75 14.9015 2.75C12.6027 2.75 10.7422 4.61484 10.7422 6.91367C10.7422 7.24023 10.7765 7.5582 10.8496 7.86328C7.3906 7.69141 4.32263 6.03281 2.27302 3.51055C1.91638 4.125 1.71013 4.84258 1.71013 5.60312C1.71013 7.04687 2.4449 8.32305 3.56209 9.0707C2.87888 9.05352 2.23435 8.86445 1.67576 8.55078C1.67576 8.56797 1.67576 8.58516 1.67576 8.60234C1.67576 10.6219 3.11091 12.302 5.01443 12.6844C4.66638 12.7789 4.29685 12.8305 3.91873 12.8305C3.65232 12.8305 3.39021 12.8047 3.13669 12.7531C3.66521 14.4074 5.20349 15.6105 7.02537 15.6449C5.6031 16.7621 3.80701 17.4281 1.85623 17.4281C1.52107 17.4281 1.19021 17.4066 0.863647 17.368C2.70271 18.5625 4.88982 19.25 7.23591 19.25C14.8929 19.25 19.0781 12.9035 19.0781 7.39922C19.0781 7.21875 19.0738 7.03828 19.0652 6.86211C19.8773 6.27344 20.582 5.53867 21.1406 4.70508Z" fill="black"/>
</svg>
