<svg width="230" height="25" viewBox="0 0 230 25" fill="none" xmlns="http://www.w3.org/2000/svg">
<path d="M0 12.5C0 5.59644 5.59644 0 12.5 0H38.5C45.4036 0 51 5.59644 51 12.5C51 19.4036 45.4036 25 38.5 25H12.5C5.59644 25 0 19.4036 0 12.5Z" fill="#F9A38F"/>
<path d="M19.8047 17H18.0469L14.625 11.3867V17H12.8672V8.46875H14.625L18.0527 14.0938V8.46875H19.8047V17ZM24.1465 17.1172C23.2168 17.1172 22.459 16.832 21.873 16.2617C21.291 15.6914 21 14.9316 21 13.9824V13.8184C21 13.1816 21.123 12.6133 21.3691 12.1133C21.6152 11.6094 21.9629 11.2227 22.4121 10.9531C22.8652 10.6797 23.3809 10.543 23.959 10.543C24.8262 10.543 25.5078 10.8164 26.0039 11.3633C26.5039 11.9102 26.7539 12.6855 26.7539 13.6895V14.3809H22.7168C22.7715 14.7949 22.9355 15.127 23.209 15.377C23.4863 15.627 23.8359 15.752 24.2578 15.752C24.9102 15.752 25.4199 15.5156 25.7871 15.043L26.6191 15.9746C26.3652 16.334 26.0215 16.6152 25.5879 16.8184C25.1543 17.0176 24.6738 17.1172 24.1465 17.1172ZM23.9531 11.9141C23.6172 11.9141 23.3438 12.0273 23.1328 12.2539C22.9258 12.4805 22.793 12.8047 22.7344 13.2266H25.0898V13.0918C25.082 12.7168 24.9805 12.4277 24.7852 12.2246C24.5898 12.0176 24.3125 11.9141 23.9531 11.9141ZM33.2344 14.6973L34.0664 10.6602H35.7012L34.084 17H32.666L31.4648 13.0098L30.2637 17H28.8516L27.2344 10.6602H28.8691L29.6953 14.6914L30.8555 10.6602H32.0801L33.2344 14.6973Z" fill="white"/>
<path d="M42 12.5C42 5.59644 47.5964 0 54.5 0H217.5C224.404 0 230 5.59644 230 12.5C230 19.4036 224.404 25 217.5 25H54.5C47.5964 25 42 19.4036 42 12.5Z" fill="#F9EDE2"/>
<path d="M83.7363 9.30029H80.9053V17H79.001V9.30029H76.208V7.75781H83.7363V9.30029ZM86.4976 10.8809C86.9842 10.2969 87.5957 10.0049 88.332 10.0049C89.8216 10.0049 90.577 10.8703 90.5981 12.6011V17H88.7637V12.6519C88.7637 12.2583 88.679 11.9684 88.5098 11.7822C88.3405 11.5918 88.0591 11.4966 87.6655 11.4966C87.1281 11.4966 86.7388 11.7039 86.4976 12.1187V17H84.6631V7.25H86.4976V10.8809ZM95.1431 17.127C94.1359 17.127 93.3149 16.818 92.6802 16.2002C92.0496 15.5824 91.7344 14.7593 91.7344 13.731V13.5532C91.7344 12.8634 91.8677 12.2477 92.1343 11.7061C92.4009 11.1602 92.7775 10.7412 93.2642 10.4492C93.755 10.153 94.3136 10.0049 94.9399 10.0049C95.8794 10.0049 96.6178 10.3011 97.1553 10.8936C97.6969 11.486 97.9678 12.326 97.9678 13.4136V14.1626H93.5942C93.6535 14.6112 93.8312 14.9709 94.1274 15.2417C94.4279 15.5125 94.8066 15.6479 95.2637 15.6479C95.9704 15.6479 96.5226 15.3919 96.9204 14.8799L97.8218 15.8892C97.5467 16.2785 97.1743 16.5832 96.7046 16.8032C96.2349 17.019 95.7144 17.127 95.1431 17.127ZM94.9336 11.4902C94.5697 11.4902 94.2734 11.613 94.0449 11.8584C93.8206 12.1038 93.6768 12.4551 93.6133 12.9121H96.165V12.7661C96.1566 12.3599 96.0465 12.0467 95.835 11.8267C95.6234 11.6024 95.3229 11.4902 94.9336 11.4902ZM107.591 15.0957H104.252L103.617 17H101.592L105.033 7.75781H106.797L110.257 17H108.232L107.591 15.0957ZM104.766 13.5532H107.077L105.915 10.0938L104.766 13.5532ZM114.859 11.8521C114.609 11.8182 114.389 11.8013 114.199 11.8013C113.505 11.8013 113.05 12.0361 112.834 12.5059V17H111V10.1318H112.732L112.783 10.9507C113.151 10.3201 113.661 10.0049 114.313 10.0049C114.516 10.0049 114.707 10.0324 114.884 10.0874L114.859 11.8521ZM118.261 8.44336V10.1318H119.436V11.4775H118.261V14.9053C118.261 15.1592 118.31 15.3411 118.407 15.4512C118.505 15.5612 118.691 15.6162 118.966 15.6162C119.169 15.6162 119.349 15.6014 119.505 15.5718V16.9619C119.146 17.0719 118.775 17.127 118.395 17.127C117.108 17.127 116.452 16.4774 116.427 15.1782V11.4775H115.424V10.1318H116.427V8.44336H118.261ZM126.304 7.75781L128.678 14.4609L131.039 7.75781H133.54V17H131.629V14.4736L131.82 10.1128L129.325 17H128.018L125.529 10.1191L125.72 14.4736V17H123.815V7.75781H126.304ZM139.062 17C138.978 16.835 138.917 16.6297 138.878 16.3843C138.434 16.8794 137.856 17.127 137.146 17.127C136.473 17.127 135.914 16.9323 135.47 16.543C135.03 16.1536 134.81 15.6628 134.81 15.0703C134.81 14.3424 135.078 13.7839 135.616 13.3945C136.157 13.0052 136.938 12.8084 137.958 12.8042H138.802V12.4106C138.802 12.0933 138.72 11.8394 138.555 11.6489C138.394 11.4585 138.138 11.3633 137.787 11.3633C137.478 11.3633 137.234 11.4373 137.057 11.5854C136.883 11.7336 136.796 11.9367 136.796 12.1948H134.962C134.962 11.797 135.085 11.4289 135.33 11.0903C135.576 10.7518 135.923 10.4873 136.371 10.2969C136.82 10.1022 137.323 10.0049 137.882 10.0049C138.728 10.0049 139.399 10.2186 139.894 10.646C140.393 11.0692 140.643 11.6659 140.643 12.436V15.4131C140.647 16.0648 140.738 16.5578 140.916 16.8921V17H139.062ZM137.545 15.7241C137.816 15.7241 138.066 15.6649 138.294 15.5464C138.523 15.4237 138.692 15.2607 138.802 15.0576V13.877H138.117C137.198 13.877 136.71 14.1943 136.65 14.8291L136.644 14.937C136.644 15.1655 136.724 15.3538 136.885 15.502C137.046 15.6501 137.266 15.7241 137.545 15.7241ZM145.912 11.8521C145.662 11.8182 145.442 11.8013 145.251 11.8013C144.557 11.8013 144.103 12.0361 143.887 12.5059V17H142.052V10.1318H143.785L143.836 10.9507C144.204 10.3201 144.714 10.0049 145.366 10.0049C145.569 10.0049 145.759 10.0324 145.937 10.0874L145.912 11.8521ZM149.295 14.2451L148.635 14.9053V17H146.8V7.25H148.635V12.6519L148.99 12.1948L150.749 10.1318H152.951L150.469 12.9946L153.167 17H151.06L149.295 14.2451ZM156.779 17.127C155.772 17.127 154.951 16.818 154.316 16.2002C153.685 15.5824 153.37 14.7593 153.37 13.731V13.5532C153.37 12.8634 153.503 12.2477 153.77 11.7061C154.037 11.1602 154.413 10.7412 154.9 10.4492C155.391 10.153 155.949 10.0049 156.576 10.0049C157.515 10.0049 158.254 10.3011 158.791 10.8936C159.333 11.486 159.604 12.326 159.604 13.4136V14.1626H155.23C155.289 14.6112 155.467 14.9709 155.763 15.2417C156.064 15.5125 156.442 15.6479 156.899 15.6479C157.606 15.6479 158.158 15.3919 158.556 14.8799L159.458 15.8892C159.182 16.2785 158.81 16.5832 158.34 16.8032C157.871 17.019 157.35 17.127 156.779 17.127ZM156.569 11.4902C156.205 11.4902 155.909 11.613 155.681 11.8584C155.456 12.1038 155.312 12.4551 155.249 12.9121H157.801V12.7661C157.792 12.3599 157.682 12.0467 157.471 11.8267C157.259 11.6024 156.959 11.4902 156.569 11.4902ZM162.847 8.44336V10.1318H164.021V11.4775H162.847V14.9053C162.847 15.1592 162.896 15.3411 162.993 15.4512C163.09 15.5612 163.277 15.6162 163.552 15.6162C163.755 15.6162 163.935 15.6014 164.091 15.5718V16.9619C163.732 17.0719 163.361 17.127 162.98 17.127C161.694 17.127 161.038 16.4774 161.013 15.1782V11.4775H160.01V10.1318H161.013V8.44336H162.847ZM171.823 13.6167H170.306V17H168.401V7.75781H171.835C172.927 7.75781 173.769 8.00114 174.362 8.48779C174.954 8.97445 175.25 9.66211 175.25 10.5508C175.25 11.1813 175.113 11.7082 174.838 12.1313C174.567 12.5503 174.154 12.8846 173.6 13.1343L175.6 16.9111V17H173.556L171.823 13.6167ZM170.306 12.0742H171.842C172.32 12.0742 172.69 11.9536 172.953 11.7124C173.215 11.467 173.346 11.1305 173.346 10.7031C173.346 10.2673 173.221 9.92448 172.972 9.6748C172.726 9.42513 172.347 9.30029 171.835 9.30029H170.306V12.0742ZM179.745 17.127C178.737 17.127 177.917 16.818 177.282 16.2002C176.651 15.5824 176.336 14.7593 176.336 13.731V13.5532C176.336 12.8634 176.469 12.2477 176.736 11.7061C177.002 11.1602 177.379 10.7412 177.866 10.4492C178.357 10.153 178.915 10.0049 179.542 10.0049C180.481 10.0049 181.219 10.3011 181.757 10.8936C182.299 11.486 182.569 12.326 182.569 13.4136V14.1626H178.196C178.255 14.6112 178.433 14.9709 178.729 15.2417C179.029 15.5125 179.408 15.6479 179.865 15.6479C180.572 15.6479 181.124 15.3919 181.522 14.8799L182.423 15.8892C182.148 16.2785 181.776 16.5832 181.306 16.8032C180.836 17.019 180.316 17.127 179.745 17.127ZM179.535 11.4902C179.171 11.4902 178.875 11.613 178.646 11.8584C178.422 12.1038 178.278 12.4551 178.215 12.9121H180.767V12.7661C180.758 12.3599 180.648 12.0467 180.437 11.8267C180.225 11.6024 179.924 11.4902 179.535 11.4902ZM189.799 13.6294C189.799 14.6873 189.558 15.5358 189.076 16.1748C188.597 16.8096 187.95 17.127 187.133 17.127C186.439 17.127 185.879 16.8857 185.451 16.4033V19.6406H183.617V10.1318H185.318L185.381 10.8047C185.826 10.2715 186.405 10.0049 187.121 10.0049C187.967 10.0049 188.625 10.318 189.095 10.9443C189.564 11.5706 189.799 12.4339 189.799 13.5342V13.6294ZM187.965 13.4961C187.965 12.8571 187.851 12.3641 187.622 12.0171C187.398 11.6701 187.07 11.4966 186.638 11.4966C186.063 11.4966 185.667 11.7166 185.451 12.1567V14.9688C185.675 15.4215 186.075 15.6479 186.651 15.6479C187.527 15.6479 187.965 14.9307 187.965 13.4961ZM190.656 13.5024C190.656 12.8211 190.787 12.2139 191.05 11.6807C191.312 11.1475 191.689 10.7349 192.18 10.4429C192.675 10.1509 193.248 10.0049 193.9 10.0049C194.827 10.0049 195.582 10.2884 196.166 10.8555C196.754 11.4225 197.082 12.1927 197.15 13.166L197.163 13.6357C197.163 14.6895 196.868 15.5358 196.28 16.1748C195.692 16.8096 194.903 17.127 193.913 17.127C192.922 17.127 192.131 16.8096 191.539 16.1748C190.95 15.54 190.656 14.6768 190.656 13.585V13.5024ZM192.491 13.6357C192.491 14.2874 192.613 14.7868 192.859 15.1338C193.104 15.4766 193.456 15.6479 193.913 15.6479C194.357 15.6479 194.704 15.4787 194.954 15.1401C195.203 14.7974 195.328 14.2515 195.328 13.5024C195.328 12.8634 195.203 12.3683 194.954 12.0171C194.704 11.6659 194.353 11.4902 193.9 11.4902C193.451 11.4902 193.104 11.6659 192.859 12.0171C192.613 12.3641 192.491 12.9036 192.491 13.6357ZM202.152 11.8521C201.902 11.8182 201.682 11.8013 201.492 11.8013C200.798 11.8013 200.343 12.0361 200.127 12.5059V17H198.292V10.1318H200.025L200.076 10.9507C200.444 10.3201 200.954 10.0049 201.606 10.0049C201.809 10.0049 202 10.0324 202.177 10.0874L202.152 11.8521ZM205.554 8.44336V10.1318H206.729V11.4775H205.554V14.9053C205.554 15.1592 205.603 15.3411 205.7 15.4512C205.798 15.5612 205.984 15.6162 206.259 15.6162C206.462 15.6162 206.642 15.6014 206.798 15.5718V16.9619C206.439 17.0719 206.068 17.127 205.688 17.127C204.401 17.127 203.745 16.4774 203.72 15.1782V11.4775H202.717V10.1318H203.72V8.44336H205.554Z" fill="#4D4D4D"/>
</svg>
