<?xml version="1.0" encoding="utf-8"?>
<!-- Generator: Adobe Illustrator 23.0.1, SVG Export Plug-In . SVG Version: 6.00 Build 0)  -->
<svg version="1.1" id="_1" xmlns="http://www.w3.org/2000/svg" xmlns:xlink="http://www.w3.org/1999/xlink" x="0px" y="0px"
	 viewBox="0 0 1985.92 1862.75" style="enable-background:new 0 0 1985.92 1862.75;" xml:space="preserve">
<style type="text/css">
	.st0{fill:#C4C1BB;}
	.st1{fill:#356B68;}
	.st2{fill:#27374D;}
	.st3{fill:#FFFFF7;}
	.st4{fill:#F2EFE9;}
	.st5{fill:#FFFFFF;}
	.st6{fill:#FFFCF5;}
	.st7{opacity:0.25;fill:#C4C1BB;enable-background:new    ;}
	.st8{fill:#F28168;}
	.st9{fill:#C67F60;}
	.st10{fill:#B38740;}
	.st11{fill:#627A94;}
	.st12{fill:#574443;}
	.st13{fill:#F07556;}
	.st14{fill:#E3E0DA;}
	.st15{fill:#F79E88;}
	.st16{opacity:0.58;fill:#FFFFFF;enable-background:new    ;}
	.st17{opacity:0.14;fill:#D9D6D0;enable-background:new    ;}
</style>
<path class="st0" d="M1922.27,859.85c-0.39-40.61-1.25-81.28-3.68-121.82c0-0.03-0.01-0.06-0.01-0.1c0.1-1.12,0.13-2.25,0.07-3.38
	c-0.82-18.38-14.15-31-32.18-32.18c-164.18-10.73-118.83-6.73-283.08,0.23c-163.59,6.93-327.14,16.74-490.92,17.64
	c-92.45,0.51-184.96-1.87-277.16-8.93c-16.67-1.28-32.62,15.58-31.89,31.89c0.83,18.44,14.03,30.44,31.89,31.89
	c4.81,0.39,9.62,0.77,14.43,1.13c0.12,0.34,0.26,0.68,0.39,1.01c-0.49,4.47-1.16,8.94-1.53,13.25c-0.77,8.9-1.5,17.81-2.2,26.72
	c-1.41,17.81-2.68,35.64-3.85,53.47c-2.33,35.67-4.24,71.36-5.82,107.07c-3.16,71.43-5.04,142.91-6.55,214.4
	c-0.35,16.8-1.28,33.75-0.03,50.53c1.13,15.09,3.47,30.58,9.45,44.46c-13.45,3.73-24.62,16-23.96,30.62
	c0.77,17.1,13.97,31.93,31.78,31.78c159.1-1.35,318.2-3.87,477.28-6.4c158.26-2.52,316.53-6.03,474.65-13.55
	c88.71-4.22-32.64-9.72,55.88-16.95c16.73-1.37,33-13.82,32.18-32.18c-0.09-1.99-0.37-4-0.83-5.99c4.35-3.39,8.31-8.07,10.87-12.44
	c4.51-7.72,5.13-15.68,6.07-24.36c1.93-17.73,3.72-35.48,5.36-53.24c3.31-35.85,6.01-71.75,8.1-107.7
	C1921.2,1004.53,1922.97,932.18,1922.27,859.85z"/>
<path class="st1" d="M1941.02,904.1c-5.53-21.81-27.74-34.31-48.61-37.41c-16.67-2.47-33.59-3.35-50.4-4.41
	c-30.12-1.9-60.44-2.81-90.52,0.2c-17.28,1.73-34.6,4.23-51.46,8.46c-10.22,2.56,190.23,6.24,182.83,14.01
	c-13.33,13.99-13.47,35.16-3.84,51.15c8.05,13.35-189.46,20.67-175.56,24.66c2.53,1.93,5.28,3.6,8.21,4.97
	c17.68,8.21,38.63,8.51,57.85,9.85c30.64,2.14,61.27,2.49,91.69-2.22c15.02-2.33,29.17-7.07,42.91-13.59
	C1925.58,949.57,1947.77,930.72,1941.02,904.1z"/>
<path class="st2" d="M1880.02,1021.86c8.05,6.24-189.46,9.66-175.56,11.53c2.53,0.9,5.28,1.68,8.21,2.32
	c17.68,3.84,38.63,3.98,57.85,4.6c30.64,1,61.27,1.16,91.69-1.04c15.02-1.09,29.17-3.31,42.91-6.36
	c21.46-4.76,43.65-13.58,36.9-26.02c-5.53-10.2-27.74-16.04-48.61-17.49c-16.67-1.16-33.59-1.57-50.4-2.06
	c-30.12-0.89-60.44-1.31-90.52,0.09c-17.28,0.81-34.6,1.98-51.46,3.95c-10.22,1.2,190.23,2.92,182.83,6.55
	C1870.53,1004.49,1870.39,1014.38,1880.02,1021.86z M1891.41,1055.41c-16.67-1.16-33.59-1.57-50.4-2.06
	c-30.12-0.89-60.44-1.31-90.52,0.09c-17.28,0.81-34.6,1.98-51.46,3.95c-10.22,1.2,190.23,2.92,182.83,6.55
	c-13.33,6.54-13.47,16.44-3.84,23.92c8.05,6.24-189.46,9.66-175.56,11.53c2.53,0.9,5.28,1.68,8.21,2.32
	c17.68,3.84,38.63,3.98,57.85,4.6c30.64,1,61.27,1.16,91.69-1.04c15.02-1.09,29.17-3.31,42.91-6.36
	c21.46-4.76,43.65-13.58,36.9-26.02C1934.49,1062.7,1912.28,1056.86,1891.41,1055.41z"/>
<path class="st3" d="M1961.68,419.28c-0.14-17.83-14.65-31.6-32.18-32.18c-97.05-3.24-626.82-5.54-654.05-4.22
	c-6.64,0.32-13.28,0.66-19.92,1.01c-7.75,0.41-16.11,0.33-23.52,2.7c-18.07,5.79-28.33,23.57-24.73,41.97
	c0.23,66.11,0.53,132.22,0.81,198.32c0.29,67.95,0.55,135.9,0.83,203.85c0.28,67.62,0.57,135.23,0.84,202.85
	s0.55,135.24,0.84,202.86c0.14,33.98,0.29,67.96,0.43,101.94c0.04,8.33,0.06,16.66,0.11,24.99c0.07,14.61,0.22,7.93,9.65,19.2
	c13.89,16.6,693.91,10.12,705.63,8.78c8.42-0.96,16.72-2.84,22.77-9.43c5.72-6.23,9.6-14.11,9.43-22.77
	c-2.36-119.49-4.06-239.03-1.85-358.54C1957.89,940.71,1961.79,434.05,1961.68,419.28z M1770.08,1067.25
	c0.51-38.56,1.03-77.13,1.54-115.69c0.17-13.22,0.35-26.44,0.52-39.66c1.03-9.97,2.11-19.94,3.28-29.9
	c0.71,22.57,1.35,45.15,1.9,67.72c-3.17,43.86-5.65,87.76-7.43,131.7C1769.97,1076.69,1770.02,1071.96,1770.08,1067.25z
	 M1446.2,1122.33c9.83-3.81,19-8.56,25.77-16.93c6.9-8.53,11.65-17.26,14.87-27.85c2.5-8.24,3.78-16.87,4.61-25.58
	c3.8,3.13,8.22,5.47,12.5,6.65c5.72,1.54,11.44,1.54,17.15,0c5.47-1.53,10.21-4.3,14.24-8.3c5.26-4.11,9.87-9.92,12.96-15.79
	c4.65-8.83,6.3-16.73,7.45-26.53c0.9-7.65-4.25-17.61-9.45-22.81c-2.23-2.23-5.04-4.24-8.11-5.83
	c-11.31-104.79-4.66-210.47-5.77-315.67c-0.08-7.54-0.2-15.07-0.38-22.61c7.03,3.69,15.27,5,22.99,2.5
	c14.36-4.65,22.42-16.31,23.67-31.09c0.16-1.86,0.31-3.72,0.47-5.58c1.04,1.63,2.12,3.25,3.25,4.82
	c7.74,10.79,18.37,17.24,32.13,15.39c11.89-1.6,24.26-10.67,26.81-23.1c0.12-0.59,0.23-1.18,0.35-1.76c1.81,1.4,3.68,2.69,5.6,3.86
	c-33.89,77.5-62.57,157.27-85.1,238.82c-7.18,26-13.71,52.17-19.71,78.47c-3.73,16.34,5,35.54,22.43,39.51
	c16.34,3.72,35.51-4.91,39.51-22.43c14.34-62.89,32.2-124.99,53.41-185.92c-0.61,5.89-1.22,11.78-1.82,17.68
	c-0.51,4.99,1.4,10.84,4.23,15.78c-0.05,3.57-0.1,7.14-0.16,10.7c-1.18,71.48-3.48,142.93-6.19,214.37
	c-1.52,40.21-3.18,80.41-4.83,120.61c-0.69,16.88,15.33,33.02,32.26,32.26c5.31-0.24,10.75-1.44,15.5-3.91
	c0.08,4.77,0.17,9.55,0.28,14.32c0.37,16.12,12,29.55,27.98,31.69c15.27,2.05,31.69-7.41,35.41-23.12
	c4.19-17.7,6.43-35.66,7.69-53.71c-0.84,29.49-1.36,59-1.58,88.5c-7.6,0.01-15.19,0.02-22.79,0c-2.41-0.54-4.88-0.91-7.36-1.18
	c-93.73-10.38-188.15-14.33-282.42-11.68c-8.71,0.24-17.42,0.57-26.13,0.92c1.28-28.28,2.44-56.58,3.57-84.87
	C1436.41,1124.13,1441.55,1124.13,1446.2,1122.33z"/>
<path class="st4" d="M1868.33,1224.37c-2.51-26.53-5.83-52.99-9.84-79.33c-1.88-12.35-3.95-24.67-6.18-36.96
	c-1.65-9.09-12.02-14.47-20.43-13.34c-9.65,1.3-15.31,8.93-16.14,18.29c-1.78,20.05-3.56,40.1-5.33,60.16
	c-0.9,10.19-1.81,20.38-2.71,30.57c-0.41,4.6-0.82,9.2-1.22,13.81c-0.2,2.3-0.41,4.6-0.61,6.9c-0.11,1.23-0.32,2.48-0.33,3.71
	c0,0.08,0,0.13,0,0.19c-0.02,0.05-0.03,0.09-0.05,0.15c0,0.01-0.01,0.03-0.01,0.05c-0.92,0.21-1.85,0.52-2.76,0.75
	c-2.34,0.58-4.71,1.07-7.08,1.54c-4.67,0.95-9.36,1.76-14.08,2.46c-0.63,0.09-1.27,0.18-1.9,0.27c-0.49,0.06-1.4,0.18-1.64,0.2
	c-2.84,0.31-5.67,0.64-8.51,0.91c-19.34,1.81-38.8,1.97-58.21,1.48c-39.35-0.99-78.59-3.75-117.97-3.85
	c-40.52-0.1-81.03,1.36-121.48,3.65c-36.89,2.09-73.74,4.89-110.58,7.84c4.58-34.59,7.85-69.33,9.2-104.21
	c0.24-6.32-3.6-12.44-8.99-15.8c1.4-13.76,3.03-27.5,4.78-41.22c0.4-3.16,0.82-6.33,1.23-9.49c0.23-1.76,0.47-3.51,0.7-5.27
	c0.04-0.3,0.09-0.69,0.16-1.17c0.95-6.96,1.91-13.92,2.88-20.87c1.95-13.91,3.93-27.82,5.85-41.74
	c3.84-27.86,7.51-55.76,10.16-83.76c2.91-30.72,4.55-61.55,4-92.41c-0.17-9.3-6.96-17.05-16.14-18.28
	c-8.35-1.12-18.9,4.18-20.42,13.33c-2.06,12.37-4.04,24.75-5.94,37.15c0.42-13.28,0.73-26.57,0.88-39.86
	c0.29-24.89,0.08-49.79-0.82-74.67c-0.87-24.16-2.93-48.26-3.84-72.41c-0.45-12.01-0.55-24.04,0.16-36.05
	c0.17-2.91,0.39-5.82,0.66-8.73c0.12-1.29,0.25-2.58,0.4-3.87c-0.04,0.38,0.34-2.56,0.45-3.57c0.17-1.05,0.43-2.74,0.42-2.68
	c0.17-1.02,0.35-2.03,0.53-3.05c0.47-2.55,0.99-5.08,1.57-7.6c1.05-4.56,2.28-9.07,3.71-13.52c0.79-2.47,1.64-4.93,2.56-7.36
	c0.37-0.97,0.75-1.93,1.13-2.9c0.08-0.2,0.15-0.37,0.21-0.53c0.1-0.2,0.21-0.45,0.35-0.75c1.96-4.21,4.02-8.35,6.35-12.36
	c1.03-1.77,2.11-3.52,3.23-5.23c0.7-1.07,1.41-2.13,2.15-3.17c0.17-0.24,1.14-1.57,1.71-2.35c0.57-0.7,1.43-1.78,1.43-1.78
	c0.65-0.78,1.32-1.55,2-2.31c1.52-1.71,3.1-3.36,4.73-4.97c1.64-1.6,3.32-3.15,5.07-4.64c0.35-0.3,0.7-0.58,1.05-0.87
	c-0.12,0.13,2.12-1.6,2.49-1.86c7.89-5.59,12.4-16.43,6.65-25.35c-5.05-7.84-16.89-12.64-25.35-6.65
	c-38.48,27.23-55.66,71.8-59.95,117.37c-2.38,25.3-0.71,50.74,0.88,76.03c1.61,25.49,2.65,50.99,2.95,76.53
	c1.18,102.4-7.79,204.52-14.18,306.62c-3.2,51.09-5.76,102.24-6.1,153.44c-0.15,22.33,0.98,47.78,21.85,61.23
	c11.16,7.2,24.85,6.95,37.61,7.17c12.95,0.22,25.89,0.41,38.84,0.56c103.58,1.21,207.18,0.11,310.7-3.3
	c25.88-0.85,51.76-1.85,77.63-2.99c12.6-0.56,25.21-1.09,37.81-1.77c11.49-0.61,23.19-1.96,33.43-7.63
	C1876.08,1279.9,1870.65,1248.96,1868.33,1224.37z"/>
<path class="st5" d="M1853.01,578.17c0.36-16.95,3.35-36.44-3.48-52.46c-7.14-16.73-23.84-22.8-40.8-24.02
	c-17.51-1.25-35.41-0.1-52.95,0c-37.82,0.23-75.64,0.45-113.46,0.68c-75.97,0.45-151.95,0.87-227.92,1.39
	c-9.29,0.06-43.3,3.76-47.6,5.75c-21.23,9.82-21.24,36.53-22.83,56.61c-3.47,43.87,3.01,311.19,1.26,400.88
	c-0.87,45.02-1.67,90.05-1.69,135.08c-0.01,22.18,0.17,44.35,0.62,66.52c0.23,11.25-0.28,58.27,5.03,67.94
	c6.08,11.08,17.78,12.73,29.22,13.1c10.97,0.35,21.94,0.68,32.91,0.99c22.61,0.64,45.22,1.21,67.83,1.69
	c45.22,0.96,90.46,1.56,135.69,1.7c44.9,0.14,77.96,0.36,122.85-0.49c22.61-0.43,45.22-1,67.82-1.72
	c10.1-0.32,22.22,0.95,31.84-2.45c13.07-4.63,15.1-17.5,15.71-29.67c0.57-11.17-0.9-175.78-1.51-242.37
	C1850.84,901.14,1852.6,597.12,1853.01,578.17z"/>
<path class="st6" d="M916.14,1276.24c-0.18-32.26-0.39-64.53-0.7-96.79c-0.63-64.86-2.02-129.7-4.05-194.53
	c-4.09-130.66-9.98-261.3-10.44-392.05c-0.26-73.62,1.34-205.02-4.13-210.75c-1.92-4.39-4.56-8.47-8.15-12.11
	c-9.71-9.83-22.68-12.61-35.59-15.44c-10.07-2.21-596.59-159.88-600.94-159.6c-31.74,2.01-190.57,1.46-192.42,1.54
	c-12.81,0.57-24.27,10.56-24.02,24.02c3.41,182.89,5.94,363.37,6.97,546.29c1.02,181.98,0.77,363.97-0.73,545.95
	c-0.85,102.25-2.09,204.49-3.74,306.72c-0.22,13.47,11.26,23.59,24.15,24.15c65.91,2.86,131.82,5.72,197.73,8.58
	c4.02,0.17,7.75-0.79,11.01-2.57c8.22-1.28,16.02-4.04,23.83-7.3c24.32-10.14,587.9-221.03,599.55-233.21
	c6.83-7.13,10.76-15.32,13.18-24.06c1.07-1.98,1.86-4.08,2.22-6.27C915.45,1344.77,916.32,1310.65,916.14,1276.24z"/>
<path class="st4" d="M253.3,466.86c-1.07-89.63-3.67-179.29-8.85-268.79c0.07-0.91,0.14-1.82,0.21-2.73
	c-44.44,1.56-182.57,1.09-184.29,1.16c-12.81,0.57-24.27,10.56-24.02,24.02c3.41,182.89,5.94,363.37,6.96,546.29
	c1.02,181.98,0.77,363.97-0.73,545.95c-0.85,102.25-2.09,204.49-3.74,306.72c-0.22,13.47,11.26,23.59,24.15,24.15
	c63.35,2.75,126.69,5.5,190.04,8.24c0.24-20.36,0.47-40.73,0.66-61.09c0.68-72.91,1.01-145.82,0.99-218.74
	c-0.02-72.56-0.39-145.12-1.1-217.67C252.88,1081.82,254.87,599.04,253.3,466.86z"/>
<g>
	<path class="st4" d="M807.22,1270.93c-8.97-8.24-22.19-10.5-32.99-4.26c-13.29,7.68-26.86,14.86-40.7,21.49
		c-6.34,3.04-12.74,5.96-19.19,8.76c-0.29,0.13-0.83,0.37-1.41,0.63c-1.48,0.64-2.98,1.23-4.47,1.84c-3.85,1.57-7.71,3.1-11.59,4.59
		c-28.36,10.88-57.56,19.57-87.25,25.94c-13.16,2.83-26.92,6.17-40.43,7.4c-0.97,0.06-2.67,0.17-3.39,0.26
		c-1.9,0.24-3.81,0.46-5.71,0.68c-3.18,0.36-6.36,0.7-9.54,1c-7.06,0.68-14.13,1.24-21.2,1.8c-26.87,2.14-54.08,4.16-80.37,10.44
		c-13.23,3.16-26.34,7.67-38.63,13.75c0.85-13.84,1.69-27.67,2.55-41.51c0.83-13.48-10.98-25-23.56-26.69
		c-1.85-0.25-3.75-0.28-5.66-0.12c6.13-79.57,12.15-159.14,17.45-238.77c3.59-53.85,6.85-107.72,9.59-161.62
		c2.72-53.36,5.96-106.94,3.93-160.38c-2.07-54.54-12.53-107.98-20.36-161.85c-0.39-2.68-0.76-5.37-1.14-8.05
		c0-0.03-0.01-0.04-0.01-0.07c-0.21-1.7-0.44-3.4-0.65-5.11c-0.84-6.8-1.6-13.6-2.24-20.42c-1.18-12.54-1.96-25.12-2.14-37.71
		c-0.19-12.89,0.26-25.79,1.54-38.62c0.14-1.4,0.3-2.8,0.45-4.2c-0.03,0.09-0.06,0.16-0.1,0.25c0.04-0.1,0.07-0.21,0.1-0.31
		c0.03-0.27,0.06-0.54,0.09-0.81c0.09-0.93,0.36-1.64,0.54-1.87c0.31-2.07,0.39-4.32,0.7-6.12c0.18-1.03,2.33-10.66,3.45-14.66
		c0.11-0.21,0.22-0.41,0.34-0.62c12.87,3.21,28.25-7.03,31.11-19.61c3.53-15.51-4.74-27.84-18.92-33.32
		c-16.85-6.51-36.7,0.5-49.18,12.5c-10.95,10.53-16.31,25.66-18.92,40.28c-4.99,27.89-6.37,56.17-4.83,84.43
		c1.6,29.12,10.32,683.51,1.62,796.12c-2.15,27.8-4.29,55.6-6.4,83.4c-0.95,12.52-1.61,24.34,1.2,36.76
		c3.6,15.94,14.09,28.75,29.39,34.53c17.3,6.54,33.67-1.73,49.06-9.01c11.97-5.66,357.18-76.85,390.35-117.04
		c8.04-9.74,6.69-29.52,11.79-41.1C816.24,1293.09,816.76,1279.69,807.22,1270.93z M394.74,434.93c0.05,0.07,0.25,0.03,0.71-0.18
		c0.05-0.02,0.08-0.04,0.13-0.06c0.15-0.04,0.29-0.09,0.43-0.13c0.02-0.03,0.05-0.07,0.08-0.1h0.01c0.01-0.01,0.02-0.02,0.02-0.04
		c0.12-0.15,0.26-0.32,0.44-0.52c0.15-0.17,0.28-0.31,0.39-0.44c-0.18,0.33-0.34,0.6-0.49,0.83c1.3-0.57,0.97-0.3,0.15,0.08
		c0.2-0.06,0.32-0.1,0.31-0.09c-0.22,0.1-0.42,0.18-0.62,0.26c-0.41,0.58-0.65,0.74-0.6,0.55c0.01-0.02,0.02-0.04,0.03-0.05
		c0.07-0.12,0.16-0.25,0.24-0.38c-0.01,0-0.02,0.01-0.03,0.01l0,0h-0.01c-0.57,0.21-1.08,0.35-1.5,0.44
		c-0.19,0.02-0.37,0.02-0.49-0.02C393.99,435.12,394.32,435.05,394.74,434.93z"/>
	<path class="st4" d="M395.96,434.66L395.96,434.66c0.11-0.04,0.22-0.08,0.33-0.12c0.01-0.01,0.01-0.02,0.02-0.03
		c0.11-0.05,0.2-0.09,0.3-0.14c-0.08,0.02-0.16,0.05-0.26,0.08c0.04-0.05,0.07-0.11,0.11-0.16c-0.11,0.05-0.22,0.1-0.36,0.16
		c-0.02,0.03-0.04,0.07-0.07,0.1c-0.01,0-0.02,0-0.02,0.01c-0.03,0.04-0.05,0.07-0.08,0.11
		C395.93,434.67,395.95,434.67,395.96,434.66z"/>
	<path class="st4" d="M390.08,460.13c0.93-2.41,0.88-3.07,0.63-2.74c-0.14,0.96-0.34,1.87-0.62,2.68
		C390.08,460.09,390.08,460.11,390.08,460.13z"/>
</g>
<path class="st5" d="M806.85,479.22c-15.17-6.69-162.8-44.86-225.16-59.2c-32.71-7.52-68.19-19.48-100.9-27
	c-16.52-3.8-33.04-7.6-49.56-11.4c-14.01-3.22-29.17-7.73-43.5-3.61c-3.79,1.09-7.1,2.74-10.05,4.87c-4.02,1.69-7.26,4.88-8.76,8.97
	l0,0c-2.84,3.93-2.76,9.41-0.78,13.97c1.68,126.16,3.36,252.31,5.05,378.47c1.72,129.08,3.44,258.15,5.16,387.23
	c0.97,72.52,1.93,145.05,2.9,217.57c0.09,6.58,4.73,13.4,11.38,14.95c18.34,4.25,36.58,2.25,54.89-1.1
	c17.68-3.24,35.3-6.86,52.92-10.39c35.15-7.04,70.25-14.3,105.31-21.78c34.73-7.42,69.42-15.05,104.06-22.91
	c17.64-4,35.27-8.06,52.88-12.17c13.85-3.23,28.82-6.31,40.53-14.88c8.4-6.15,14.57-13.76,18.02-23.69
	c3.12-8.97,3.24-18.82,3.41-28.22c0.19-11.08,0.38-22.17,0.58-33.25c0.76-6.88,1.13-13.79,1.31-20.58
	c0.72-27.06,0.51-54.17,0.72-81.24c0.43-55.13,0.86-110.27,1.29-165.4l1.3-167.39c0.43-54.9-3.15-252.16-3.15-283.02
	C826.69,493.02,813.94,482.35,806.85,479.22z M412.07,1375.56c0-0.36-0.01-0.73-0.01-1.09c0.43,0.38,0.88,0.75,1.33,1.11
	C412.96,1375.57,412.51,1375.58,412.07,1375.56z M769.66,1302.06c0.13-0.55,0.21-1.1,0.28-1.65c1.01,0.3,2.03,0.54,3.07,0.68
	C771.9,1301.44,770.78,1301.75,769.66,1302.06z"/>
<path class="st7" d="M1100.02,1645.34c-6.33-9.66-19.15-15.16-29.67-18.75c-10.46-3.58-21.63-5.13-32.63-5.88
	c-8.91-0.61-17.88-0.72-26.87-0.54c-14.13-0.57-28.3-0.11-42.49,0.94c-24.28,1.81-48.85,3.85-72.84,8.08
	c-11.42,2.01-22.74,4.77-33.6,8.89c-11.2,4.25-25.19,11.05-25.19,25.11c0,15.74,17.58,20.15,30.14,20.71
	c12.36,0.56,24.84-0.03,37.2-0.47c24.69-0.88,49.33-2.12,74.04-1.62c24.37,0.49,48.78,1.85,73.14,0.37
	c11.92-0.72,24.93-1.33,36.45-4.64C1101.92,1673.45,1108.33,1658.02,1100.02,1645.34z M861,1657.08c-0.63-0.17-1.25-0.37-1.87-0.59
	C859.87,1656.38,860.49,1656.58,861,1657.08z"/>
<path class="st7" d="M1423.27,1572.23c-15.05-18.65-41.78-22.74-64.21-24.34c-8.2-0.58-16.35-0.47-24.47,0.09
	c-24.8-7.17-51.44-3.35-76.67-0.84c-12.87,1.28-25.73,2.75-38.56,4.41c-12.28,1.59-25.41,2.32-37.02,6.96
	c-19.52,7.8-52.93,38.09-24.18,56.14c20.95,13.16,48.44,9.24,71.72,7.61c52.81-3.7,105.74,1.52,158.59-0.87
	c12.36-0.56,25.91-1.71,34.84-11.43C1433.64,1598.69,1432.53,1583.71,1423.27,1572.23z"/>
<path class="st8" d="M1237.44,1428.55c-2.28-23.9-2.39-47.91-0.31-71.83c0.23-2.65-1.47-4.41-3.6-5.09
	c-1.45-3.79-6.68-5.36-9.16-2.57c-1.07-0.37-2.28-0.41-3.42-0.13c-2.84-2.64-8.64-2.33-9.31,2.29c-0.27,1.84-0.51,3.69-0.76,5.54
	c-2.78-1.15-6.55,0.02-7.62,3.43c-1.42-0.17-2.94,0.17-4.15,1.03c-3.15-1.34-7.85,0.27-8.15,4.81c-1.05,15.85-0.41,31.6,1.62,47.33
	c0,0.03,0,0.05-0.01,0.08c0.01,0,0.01,0,0.02,0c0.06,0.49,0.11,0.98,0.18,1.46c0.44,3.24,2.96,4.3,5.47,3.87
	c0.34,0.82,0.79,1.62,1.37,2.38c2.18,2.85,5.77,3.23,8.09,1.5c0.88,1.39,2.22,2.05,3.64,2.14c1.95,5.18,10.12,4.53,10.64-1.86
	c0.07-0.88,0.15-1.77,0.22-2.65c0.16,1.03,0.32,2.06,0.5,3.09c0.36,2.05,1.8,3.26,3.52,3.72c0.04,0.48,0.08,0.97,0.12,1.46
	C1227.03,1435.59,1238.12,1435.66,1237.44,1428.55z"/>
<path class="st8" d="M1227.16,1594.28c0-0.08,0-0.15,0-0.23c6.1-32.82,6.89-67,10.65-100.17c1.89-16.65,3.75-33.13,1.67-49.86
	c-1.03-8.29-2.78-16.47-4.59-24.62c-1.58-7.1-5.75-17.19-3.15-24.29c2.43-6.63-3.8-8.98-6.25-2.38c-0.06,0.17-0.11,0.34-0.17,0.52
	c-0.75-0.25-1.57-0.35-2.38-0.31c-0.01-0.47-0.02-0.94-0.03-1.42c-0.19-6.84-10.53-7.76-11.02-1.22c-1.79-0.61-3.9-0.22-5.45,1.04
	c-1.15-4.77-8.82-6.45-10.49-0.67c-8.09,27.97,1.84,55.98,6.11,83.66c5.07,32.89,8.26,66.17,12.3,99.21c0.78,6.4,1.9,12.98,1.8,19.5
	C1215.65,1595.76,1227.1,1596.59,1227.16,1594.28z"/>
<path class="st2" d="M1190.02,1597.2c4.56-2.97,8.77-5.76,13.46-8.52c3.35-1.97,6.67-4.11,10.55-4.82c3.66-0.67,13.51-0.31,14-0.29
	c4.77,0.14,4.64,8.81,4.85,13.6c0.38,8.64-7.92,7.31-14.12,7.82c-9.41,0.77-18.35,2.36-27.77,2.6c-2.45,0.06-6.68,0.24-8.07-1.28
	C1182.11,1605.43,1179.32,1604.16,1190.02,1597.2z"/>
<path class="st8" d="M1302.94,1582.57c-0.03-0.07-0.06-0.14-0.09-0.21c-7.7-32.48-20.82-64.06-30.81-95.91
	c-5.01-15.99-9.99-31.81-18.66-46.27c-4.3-7.16-9.21-13.94-14.16-20.66c-4.31-5.85-12.22-13.39-12.72-20.93
	c-0.47-7.05-7.11-6.68-6.68,0.36c0.01,0.18,0.04,0.36,0.05,0.54c-0.79,0.07-1.57,0.31-2.3,0.68c-0.2-0.43-0.4-0.86-0.6-1.28
	c-2.94-6.17-12.77-2.83-10.57,3.35c-1.89,0.17-3.65,1.38-4.56,3.15c-2.98-3.9-10.68-2.33-9.86,3.63
	c3.93,28.85,24.35,50.44,39.46,74.02c17.96,28.02,34.34,57.17,51.41,85.74c3.31,5.54,7,11.1,9.53,17.1
	C1293.02,1588.58,1303.82,1584.71,1302.94,1582.57z"/>
<path class="st2" d="M1270.34,1600.91c2.81-4.66,5.38-9.01,8.4-13.54c2.15-3.23,4.21-6.61,7.39-8.93c3-2.19,12.02-6.16,12.47-6.36
	c4.35-1.95,8.01,5.9,10.29,10.12c4.11,7.61-3.94,10.03-9.3,13.19c-8.13,4.79-15.49,10.12-23.86,14.44
	c-2.18,1.12-5.91,3.13-7.82,2.37C1266.82,1611.77,1263.75,1611.84,1270.34,1600.91z"/>
<path class="st9" d="M933.78,1647.78c2.25-19.27,14.47-110.09,16.36-108.94c2.49,1.5,4.89,6.03,7.5,6.9c1.5-0.89,3.86-0.5,4.44,1.34
	c0.87,0.24,1.74,0.48,2.62,0.73c0.02,0.01,0.04,0.01,0.06,0.02c1.32-1.61,4.11-0.91,5.08,0.91c0.34,0.64,0.62,1.3,0.86,1.96
	c0.88,0.72,1.66,1.57,2.31,2.62c0.13,0.21,0.23,0.42,0.31,0.63c0.87,0.53,1.44,1.49,1.19,2.82c-1.35,7.29-11.39,46.83-14.08,53.58
	c-3.88,12.3-7.96,24.66-12.86,36.51c-1.85,4.49-5.41,9.14-10.87,8.44C931.11,1654.57,933.2,1652.7,933.78,1647.78z"/>
<path class="st2" d="M909.13,1649.36c4.79-2.57,9.23-5.01,14.13-7.36c3.5-1.68,6.99-3.54,10.91-3.91c3.7-0.36,13.48,0.83,13.98,0.89
	c4.74,0.54,3.88,9.16,3.69,13.96c-0.34,8.64-8.5,6.62-14.73,6.61c-9.44-0.03-18.49,0.81-27.89,0.25c-2.44-0.14-6.68-0.32-7.93-1.95
	C900.56,1656.9,897.89,1655.4,909.13,1649.36z"/>
<path class="st9" d="M1055,1650.72c-3.28-19.12-17.19-109.69-15.05-109.13c2.81,0.74,6.39,4.4,9.14,4.5
	c1.19-1.28,3.56-1.57,4.63,0.03c0.9-0.01,1.8-0.03,2.72-0.04c0.02,0,0.04,0,0.06,0c0.81-1.91,3.69-2.03,5.13-0.56
	c0.51,0.52,0.96,1.07,1.38,1.64c1.04,0.44,2.04,1.04,2.96,1.86c0.18,0.16,0.34,0.34,0.47,0.51c0.98,0.27,1.8,1.02,1.94,2.37
	c0.77,7.37,2.29,48.14,1.61,55.38c-0.25,12.89-0.68,25.91-2.03,38.65c-0.51,4.83-2.61,10.29-8.05,11.16
	C1054.35,1657.99,1055.84,1655.61,1055,1650.72z"/>
<path class="st2" d="M1028.66,1651.32c4.7-2.74,9.04-5.33,13.86-7.86c3.44-1.81,6.86-3.78,10.77-4.3c3.69-0.49,13.5,0.35,14,0.39
	c4.76,0.37,4.21,9.02,4.19,13.82c-0.04,8.65-8.26,6.92-14.48,7.13c-9.43,0.31-18.45,1.47-27.86,1.25c-2.45-0.06-6.69-0.08-8-1.67
	C1020.37,1659.16,1017.64,1657.75,1028.66,1651.32z"/>
<path class="st10" d="M1070.94,1290.83c-2.86-23.69-6.81-47.25-12.11-70.45c-1.9-8.3-10.48-7.72-13.86-2.35
	c-0.16-1.4-0.31-2.8-0.48-4.2c-1.16-9.68-13.57-12.55-15.55-2.02c-0.52,2.78-0.96,5.56-1.34,8.35c-0.39,0.01-0.78,0.02-1.16,0.03
	c-0.52-2.2-1.06-4.4-1.63-6.6c-1.72-6.58-9.92-8.21-13.51-3.83c-1.01,0.73-1.93,1.8-2.69,3.27c-0.5-0.18-1.02-0.31-1.59-0.37
	c-1.09-0.12-2.17,0.02-3.18,0.37c-0.67-7.89-11.8-11.54-15.19-3.83c-0.68-0.67-1.5-1.23-2.49-1.63c-3.76-1.54-8.16-0.04-10.14,3.99
	c-0.58,1.18-1.11,2.38-1.62,3.58c-1.44,0.53-2.78,1.41-3.99,2.8c0.44-4.63-1.55-9.2-5.97-10.4c-3.94-1.07-9.19,1.73-9.83,6.54
	c-2.95,22.15-16.43,46.46-19.33,74.94c-9.76,95.94-8.27,219.14-13.71,294.31c-0.5,6.91-0.99,13.82-1.46,20.73
	c-0.43,6.28-1.54,13.18,2.78,18.23c3.99,4.65,9.58,4.68,14.98,5.06c6.45,0.46,12.89,0.91,19.34,1.37c3.82,0.27,6.6-3.32,7.74-6.86
	c14.22-44.33,30.73-121.21,44.48-194.92c6.9,59.92,14.34,118.28,22.19,161.52c1.23,6.79,2.48,13.58,3.74,20.37
	c1.14,6.16,1.81,13.13,7.02,16.77c4.81,3.36,9.96,1.81,15.02,0.66c6.04-1.37,12.08-2.75,18.12-4.12c3.58-0.81,5.26-5.06,5.43-8.78
	C1084.94,1530,1081.02,1374.28,1070.94,1290.83z"/>
<path class="st9" d="M991.12,945.45c1.39-2.58,2.75-5.04,3.99-7.56c2.07-18.35,6.24-36.1,25.16-42.04
	c11.08-3.48,34.38-5.96,42.8,2.55c7.93,8.02,12.26,19.41,13.37,30.51c1.79,17.82-4.82,37.81-17.79,50.73
	c-1.2,4.16-2.01,8.44-2.65,12.7c-1.7,11.36,0.46,29.2,0.46,40.66c0,3.73-3.98,0.82-7.4,2.18c-0.8,4.41-5.72,6.96-10.02,6.53
	c-0.7,0.52-1.44,0.94-2.2,1.23c-15.21,5.65-17.22,9.96-18.09,1.09l0.64-47.03c-7.31-3.05-13.69-2.87-18.5-9.44
	c-5.08-6.93-6.91-17.64-7.17-27.5c-2.41-0.59-4.84-1.66-5.87-4.06C986.14,952.09,989.37,948.69,991.12,945.45z"/>
<path class="st2" d="M1090.46,920.86c-2.46-7.68-6.1-12.34-12.36-16.96c-3.64-2.69-7.55-4.78-11.38-7.15
	c-3.55-2.19-4.3-5.98-7.28-8.86c-5.54-5.36-12.86-5.79-19.78-3.33c-1.06,0.38-3.89,1.85-5.14,1.13c-1.22-0.7-0.83-3.6-1.21-4.78
	c-1.02-3.16-3.81-5.57-6.96-6.49c-6.66-1.95-15.68,1.67-19.58,7.2c-1.07,1.51-1.77,3.78-3.09,5.06c-1.69,1.64-4.41,1.71-6.4,2.93
	c-3.06,1.88-4.89,5.21-5.65,8.65c-1.61,7.27,1.11,15.03,6.25,20.26c5.12,5.82,7.12,9.13,8.44,13.32c0.89,2.82,1.52,5.71,3.26,8.17
	c1.83,2.59,4.45,4.02,7.51,4.64c4.44,0.9,8.02-0.09,10.25,4.75c1.84,4,1.73,8.61,2.67,12.85c0.77,3.46,2.11,6.8,3.95,9.84
	c3.93,6.49,9.72,11.46,15.67,16.03c2.07,1.59,4.52,0.51,5.88-1.34c6.72-6.29,12.8-13.17,18.84-20.1c5.55-6.37,11.21-12.9,15.1-20.45
	C1093.26,938.81,1093.1,929.11,1090.46,920.86z"/>
<path class="st6" d="M1081.29,1103.02c-2.43-47.57-23.17-82.29-23.27-82.63c-2.99-10.05-16.83-11.42-27.43-5.16
	c-20.8,12.29-34.41,29.69-43.3,49.29c-7.8,17.21-24.06,99.96-30.2,133.5c-8.45,15.18-16.19,30.71-21.56,47.31
	c-4.25,13.13-8.07,30.44,5.19,39.71c1.65,1.15,3.89,0.85,5.57,0c10.82-5.51,20.84-12.23,30.12-19.86
	c17.36,0.95,37.61,0.25,43.9,0.26c11,0.03,37.62-0.03,47.01-6.92C1098.7,1235.49,1083.07,1137.78,1081.29,1103.02z"/>
<path class="st11" d="M1263.3,1369.81c-1.27-3.69-3.55-6.74-5.78-9.83c0-15.54,0-31.08,0-46.62c0-1.82-0.73-3.17-1.81-4.05
	c-0.05-5.92-0.36-11.84-0.93-17.75c1.38-13.29,0.92-26.77-1.48-39.93c-0.68-3.7-1.72-7.76-3.31-11.48
	c4.61-5.82,0.99-14.44-5.53-18.65c-0.82-0.53-1.66-1-2.52-1.45c4.25-3.04,5.03-10.46-1.34-12.14c-9.58-2.52-19.39-4.19-29.29-4.69
	c-7.88-0.4-20.91-2.36-24.61,6.8c-1.7,4.2-1.89,9.27-2.83,13.69c-1.05,4.97-2.23,9.9-3.51,14.81c-2.62,10.04-5.71,19.94-7.51,30.18
	c-3.58,20.29-4.58,41.21-6.59,61.7l-3.06,31.19c-0.41,4.18-1.28,8.6-0.1,12.71c1.32,4.59,5.15,7.3,9.2,9.39
	c19.65,10.13,81.87,5.98,86.3,3.09C1264.23,1383.09,1265.37,1375.83,1263.3,1369.81z M1253.31,1376.26
	c-0.22,0.72-0.77,1.25-1.53,1.65c0.09-0.94,0.01-1.9-0.22-2.8c0.64,0.07,1.28,0.03,1.9-0.1
	C1253.46,1375.44,1253.43,1375.86,1253.31,1376.26z"/>
<path class="st5" d="M1222.51,1205.23c-1.32-13.76-5.03-26.78-11.25-39.13c-0.63-1.24-1.58-2.01-2.66-2.4
	c-0.14-1.25-0.29-2.5-0.46-3.75c-0.53-3.82-4.06-4.57-6.98-3.46c1.4-4.03,2.8-8.06,4.12-12.09c2.2-6.73-8.33-9.57-10.57-2.91
	c-3.18,9.44-6.3,18.91-9.45,28.36c-2.49,7.48-6.01,15.6-5.71,23.62c0.27,7.28,4.32,12.8,11.46,14.6c8.25,2.07,17.51,1.91,25.96,2.7
	C1219.76,1211.03,1222.77,1208.01,1222.51,1205.23z"/>
<path class="st8" d="M1193.86,1000.59c4.15,7,15.57,9.81,22.92,11.06l-0.22,2c12.2-3.32,19.54-1.86,31.96-3.93
	c0.99-3.84-9.77-14.16-8.3-17.86c14.17-11.6,34.6-24.37,34.56-42.28c-0.03-11.15-4.8-20.09-11.92-28.84
	c-7.55-9.29-30.45-10.04-41.82-7.66c-19.4,4.07-24.24,19.45-28.08,37.52c-1.47,2.38-3.06,4.7-4.7,7.13
	c-2.06,3.06-5.6,6.12-4.3,10.18c0.79,2.49,3.11,3.78,5.45,4.61C1188.71,982.36,1189.49,993.2,1193.86,1000.59z"/>
<path class="st8" d="M1267.06,1028.27c-3.14-10.44-11.11-24.76-15.66-34.67c-0.69-1.51-1.88-2.32-3.22-2.6
	c-1.3-1.32-3.11-1.82-4.82-1.65c-2.82-4.04-9.78-2.47-10.37,1.85c-0.09,0.03-0.18,0.07-0.26,0.11c-3.25-1.22-7.36,0.39-7.66,3.79
	c-0.99,0.22-1.89,0.66-2.6,1.3c-2.43-0.25-4.95,1.25-6.04,3.93c-0.78,1.91-0.89,3.78-0.57,5.59c-0.1,0.98,0.08,2.03,0.63,3.11
	c2.58,5.01,12.32,26.26,16.63,30.99C1235.22,1042.33,1267.25,1028.9,1267.06,1028.27z"/>
<path class="st12" d="M1294.83,899.06c-1.69-7.41-9.42-8.09-15.21-4.92c-7.94,4.35-13.68,12.23-16.29,20.96
	c-8.66-3.97-19.62-6.22-28.9-6.06c-21.04,0.36-29.46,9.28-30.58,11.44c-1.97,3.79-2.32,7.85-1.2,11.97
	c1.22,4.48,4.34,8.09,5.74,12.47c1.21,3.79,1.16,7.61,3.46,11.04c2.34,3.48,7.99,3.84,9.25,8.04c1.13,3.73,1.25,10.61-1.99,13.86
	c-3.03,3.04,6.2,6.6,8.98,9.82c4.85,5.62,13.01,14.43,21.17,13.33c7.82-1.05,14.63-10.58,19.21-16.25
	c5.88-7.29,10.66-15.4,13.16-24.48c2.32-8.42,2.1-17.66-0.82-25.79c4.74-4.14,8.52-9.5,10.91-15.29
	C1294.17,913.3,1296.29,905.46,1294.83,899.06z"/>
<path class="st13" d="M1352.46,1483.37c-5.76-7.61-11.91-15-16.53-23.39c-4.33-7.86-6.8-16.68-7.94-25.56
	c-2.39-18.64-0.01-37.58,0.02-56.28c0.03-18.89-3.16-37.27-8.8-55.27c-5.57-17.79-12.88-34.96-19.08-52.53
	c-6.32-17.91-11.22-36.15-12.09-55.21c-0.95-20.79,1.52-41.52,3.44-62.18c2.15-23.15,2.74-46.03,0.11-69.17
	c-2.7-23.82-7.53-47.32-12.61-70.73c-2.17-10-16.61-6.63-16.53,2.61c-2.38,1.26-4.15,3.66-4.19,7.2c-0.02,2.07-0.04,4.13-0.06,6.2
	c-0.55-0.29-1.14-0.49-1.76-0.62c-1.83-4.67-8.13-6.24-12.31-3.91c-0.51-0.34-1.05-0.63-1.6-0.87c-0.79-6.22-8.71-11.2-14.25-5.32
	c-18.03,19.12-29.99,43.89-33.81,69.88c-5.24,9.34-11.18,18.33-17.14,27.24c-6.13,9.17-12.32,18.31-17.87,27.85
	c-5.42,9.32-11.05,21.73-2.32,31.03c14.28,15.2,35.6,3.38,47.45-9.23c1.04,3.25,2.1,6.5,3.16,9.74
	c6.45,19.61,12.8,39.27,17.87,59.28c4.99,19.69,8.44,39.57,10.04,59.83c1.57,19.86,2.06,39.8,4.32,59.6
	c2.25,19.76,6.28,38.96,13.98,57.36c7.33,17.53,16.83,34.32,21.35,52.9c5.04,20.67,3.84,42.62,12.87,62.29
	c7.78,16.95,23.09,32.39,42.43,31.6c34.32-1.41,43.6-13.94,43.43-23.91C1373.74,1514.85,1363.54,1498.01,1352.46,1483.37z"/>
<path class="st12" d="M1293.9,1011.18c-3.33-13.81,0.82-28.38-4.65-41.83c-2.41-5.92-5.99-11.19-7.43-17.48
	c-1.29-5.68-1.61-11.58-3.67-17.07c-2.41-6.43-6.72-12.45-13.52-14.66c-7.49-2.43-14.3,1.93-16.85,8.97
	c-0.75,2.06-1.37,4.19-1.92,6.36c-2.27-1.31-5.12-1.32-7.53-0.15c-0.97-0.47-2.07-0.74-3.31-0.74c-3.22,0-7.27,2.47-7.76,5.91
	c-0.09,0.66-0.18,1.32-0.27,1.97c-6.06-5.75-17.42,1.66-12.39,9.74c3.26,5.24,7.3,11.29,7.55,17.67c0.22,5.79-4.54,9.77-7.57,14.19
	c-3.32,4.84-4.97,10.39-3.86,16.24c0.84,4.46,5.27,9.26,3.74,13.79c-1.63,4.83-5.09,8.62-5.98,13.82
	c-1.09,6.35,1.19,12.41,6.16,16.52c4.47,3.69,10.28,5.36,16.03,4.98c7.14-0.47,13.16-3.85,19.84-5.96c2.94-0.93,5.95-1.73,8.97-0.72
	c2.54,0.85,4.82,2.58,7.34,3.56c5.84,2.25,12.47,1.75,17.98-1.23C1297.99,1037.94,1296.93,1023.76,1293.9,1011.18z"/>
<path class="st10" d="M1490.36,503.93c-25.44,0.16-50.87,0.31-76.31,0.48c-9.29,0.06-43.3,3.76-47.6,5.75
	c-21.23,9.82-21.24,36.53-22.83,56.61c-2.32,29.26-0.21,157.91,0.94,266.97c9.79,8.58,20.61,15.78,32.42,20.87
	c36.14,15.59,76.44,14.81,114.11,5.26c37.8-9.58,73.3-28.75,96.73-60.55c12.79-17.36,20.33-38.34,22.03-59.78
	c0.87-10.93,0.4-24.06-4.55-34c-0.36-0.73-0.77-1.42-1.2-2.09c-3.06-12.74-10.47-24.25-21.47-31.44
	c-4.76-3.11-10.16-5.11-15.76-5.97c-6.11-4.59-13.15-8.21-20.27-10.8c-7.11-14.77-15.92-29.01-23.92-42.99
	c-5.46-9.54-10.36-19.35-14.83-29.39c-0.17-0.38-0.31-0.69-0.42-0.94c-0.63-1.5-1.24-3-1.84-4.51c-0.99-2.49-1.94-5-2.87-7.52
	c-1.95-5.32-3.75-10.69-5.4-16.11c-3.3-10.84-6-21.86-8.07-32.99c-0.31-1.64-0.57-3.28-0.85-4.93c0.84-3.05,1.4-6.28,1.77-9.74
	C1490.26,505.39,1490.32,504.66,1490.36,503.93z"/>
<path class="st2" d="M1777.73,1010.74c-27.49-12.32-51.21-30.2-76.68-46.07c-28.93-18.02-62.05-31.49-96.76-29.35
	c-36.26,2.23-71.14,17.12-96.19,43.81c-21.9,23.33-35.21,52.26-45.49,82.21c-9.68,28.21-16.48,57.35-27.64,85.04
	c-7.79,17.58-17.18,34.42-28.58,49.92c-8.12,10.05-17.1,19.32-27.08,27.51c-8.49,6.13-17.51,11.36-27.05,15.7
	c-0.61,0.25-1.2,0.5-1.79,0.76c6.45,8.01,16.79,9.36,26.93,9.69c10.97,0.35,21.94,0.68,32.91,0.99c22.61,0.64,45.22,1.21,67.83,1.69
	c45.22,0.96,90.46,1.56,135.69,1.7c44.9,0.14,77.96,0.36,122.85-0.49c22.61-0.43,45.22-1,67.82-1.72
	c10.1-0.32,22.22,0.95,31.84-2.45c13.07-4.63,15.1-17.5,15.71-29.67c0.45-8.91-0.39-115.45-1.06-191.99
	c-4.81-0.3-9.61-0.72-14.4-1.27C1816.42,1023.65,1796.7,1018.28,1777.73,1010.74z"/>
<path class="st2" d="M1542.61,593.12C1542.57,592.16,1542.57,592.44,1542.61,593.12L1542.61,593.12z M1851.54,977.98
	c-0.19-20.65-0.2-58.04-0.11-101.96c-11.61-2.5-23.51-3.92-35.49-5.09c-5.43-0.53-10.86-1.01-16.28-1.58
	c-2-0.21-3.99-0.45-5.98-0.68c-1.52-0.25-3.05-0.46-4.57-0.71c-4.93-0.83-9.83-1.82-14.67-3.09c-4.7-1.23-10.26-2.4-14.56-4.77
	c0.95,0.47,3.99,1.84,0.8,0.24c-0.91-0.46-1.84-0.89-2.75-1.36c-2.27-1.17-4.48-2.44-6.62-3.83c-0.85-0.55-1.67-1.13-2.51-1.7
	c-2.04-1.88-4.12-3.65-6.02-5.69c-0.7-0.75-1.36-1.53-2.04-2.29c-2.7-3.01,0.27,0.64,0.59,0.87c-1.71-1.22-3.12-4.49-4.23-6.32
	c-1.18-1.96-2.28-3.97-3.3-6.02c-0.57-1.14-1.09-2.31-1.65-3.46c-0.03-0.05-0.05-0.09-0.07-0.14c-0.03-0.09-0.07-0.18-0.11-0.29
	c-6.92-18.54-9.86-38-14.84-57.07c-5.45-20.85-13.92-41.62-29.03-57.4c-17.25-18.02-41.29-24.02-64.02-32
	c-4.95-1.74-9.82-3.62-14.7-5.53c-0.38-0.15-0.67-0.23-0.89-0.28c-0.57-0.28-1.13-0.59-1.45-0.74c-2.75-1.23-5.48-2.52-8.18-3.88
	c-4.63-2.33-9.16-4.85-13.54-7.62c-1.83-1.16-3.64-2.36-5.42-3.61c-0.3-0.21-1.08-0.73-1.75-1.16c-0.96-0.75-1.88-1.6-2.78-2.38
	c-3.67-3.15-7.13-6.55-10.32-10.19c-0.69-0.78-1.34-1.6-2.03-2.38c-0.04-0.05-0.08-0.09-0.12-0.14c-1.57-2.25-3.17-4.47-4.63-6.81
	c-2.48-3.97-4.7-8.1-6.69-12.34c-0.21-0.46-0.57-1.09-0.86-1.72c-0.09-0.33-0.19-0.67-0.3-0.95c-1.04-2.69-1.99-5.41-2.86-8.16
	c-1.66-5.28-3-10.66-4.05-16.1c-0.25-1.3-0.49-2.6-0.71-3.9c-0.1-0.61-0.17-1.85-0.21-2.6c0.01,0.44,0.04,1.13,0.06,2.16
	c-0.07-2.62-0.61-5.28-0.82-7.9c-1.03-12.79-0.55-25.66,0.89-38.4c0.13-1.13,0.24-2.28,0.41-3.41c0.15-0.91,0.31-1.89,0.35-2.11
	c0.54-3.47,1.15-6.93,1.81-10.38c1.26-6.6,2.72-13.16,4.31-19.69c0.8-3.29,1.63-6.57,2.49-9.84c-25.33,0.15-50.66,0.31-75.98,0.47
	c-1.44,6.41-2.7,12.88-3.75,19.41c-4.6,28.69-6.93,58.07-3.62,87.04c3.13,27.38,9.72,54.38,23.76,78.39
	c13.51,23.1,33.54,41.67,57.64,53.27c22.17,10.67,45.93,17.17,68.75,26.18c1.13,0.51,2.27,1.01,3.39,1.54
	c2.47,1.16,4.91,2.37,7.31,3.66c2.38,1.28,4.71,2.63,7,4.07c1.14,0.72,2.26,1.45,3.37,2.21c0.36,0.25,0.8,0.61,1.23,0.98
	c-0.28-0.28-0.59-0.59-0.94-0.94c0.42,0.42,0.84,0.82,1.26,1.23c-0.1-0.09-0.21-0.19-0.32-0.28c2.44,2.42,2.03,1.9,0.95,0.87
	c2.94,2.72,6.02,5.23,8.7,8.28c0.46,1.04,2,2.61,2.51,3.39c1.95,2.97,3.71,6.06,5.29,9.24c0.6,1.2,1.15,2.41,1.72,3.62
	c0.01,0.04,0.02,0.07,0.04,0.11c1.04,2.9,2.13,5.77,3.08,8.7c2,6.18,3.69,12.45,5.31,18.74c3.2,12.37,6.16,24.86,10.71,36.82
	c5.74,15.07,13.05,28.15,23.18,40.67c9.18,11.35,20.47,20.79,32.48,29.03c27.65,18.98,61.02,28.6,93.74,34.18
	c7.43,1.27,14.99,2.51,22.61,3.58C1851.54,978.01,1851.54,978,1851.54,977.98z"/>
<path class="st10" d="M1849.94,525.29c-7.14-16.73-23.84-22.8-40.8-24.02c-17.51-1.25-35.41-0.1-52.95,0
	c-37.82,0.22-75.64,0.45-113.46,0.68c-10.85,0.06-21.7,0.13-32.55,0.19c-3.82,13.57-6.14,27.51-6.21,41.78
	c-0.17,32.65,11.92,67.9,38.11,88.74c13.91,11.07,29.6,19.37,47.11,23.19c18.01,3.92,35.26,3.81,53.36,0.95
	c30.44-4.8,61.07-22.08,80.64-45.94c15.6-19.03,26.53-41.53,31.02-65.5C1853.78,538.38,1852.62,531.56,1849.94,525.29z"/>
<path class="st11" d="M826.69,518.02c0-25-12.75-35.68-19.84-38.8c-15.17-6.69-162.8-44.86-225.16-59.2
	c-8.28-1.9-16.73-4.09-25.27-6.42c-11.04,15.68-19.92,33.03-26.97,51.18c-16.05,41.3-19.61,86.61-19.08,130.54
	c0.6,49.81,5.61,99.53,0.4,149.26c-5.01,47.8-14.93,96.43-1.14,143.82c7.14,24.56,21.25,51.36,45.21,63.27
	c14.96,7.43,32.44,10.54,48.65,5.04c13.51-4.58,25.38-12.62,34.81-23.34c15.99-18.19,28.91-39.65,41.82-60.07
	c12.34-19.54,24.11-39.43,35.33-59.63c45.24-81.45,81.78-167.8,111.66-255.99C826.85,538.85,826.69,524.63,826.69,518.02z"/>
<path class="st2" d="M474.12,711.96c-6.34-0.75-14.76,3.14-15.77,10.3c-1.46,10.28-4.12,17.71-9.63,26.13
	c-4.27,6.53-1.31,15.96,5.18,19.75c7.08,4.14,15.41,1.32,19.75-5.18c7.47-11.18,11.37-23.63,12.94-36.88
	C487.41,719.09,480.48,712.72,474.12,711.96z"/>
<path class="st2" d="M411.12,912.96c-6.34-0.75-14.76,3.14-15.77,10.3c-1.46,10.28-4.12,17.71-9.63,26.13
	c-4.27,6.53-1.31,15.96,5.18,19.75c7.08,4.14,15.41,1.32,19.75-5.18c7.47-11.18,11.37-23.63,12.94-36.88
	C424.41,920.09,417.48,913.72,411.12,912.96z"/>
<path class="st2" d="M476.08,789.28c-7.27-2-15.94,2.45-17.69,10.05c-3.55,15.36-9.41,28.16-18.44,41.21
	c-4.43,6.4-1.18,16,5.17,19.72c7.25,4.24,15.17,1.17,19.72-5.17c10.25-14.29,17.47-30.96,21.3-48.11
	C487.82,799.4,483.83,791.41,476.08,789.28z"/>
<path class="st2" d="M525.08,930.28c-7.27-2-15.94,2.45-17.69,10.05c-3.55,15.36-9.41,28.16-18.44,41.21
	c-4.43,6.4-1.18,16,5.17,19.72c7.25,4.24,15.17,1.17,19.72-5.17c10.25-14.29,17.47-30.96,21.3-48.11
	C536.82,940.4,532.83,932.41,525.08,930.28z"/>
<path class="st2" d="M560.08,982.28c-7.27-2-15.94,2.45-17.69,10.05c-3.55,15.36-9.41,28.16-18.44,41.21
	c-4.43,6.4-1.18,16,5.17,19.72c7.25,4.24,15.17,1.17,19.72-5.17c10.25-14.29,17.47-30.96,21.3-48.11
	C571.82,992.4,567.83,984.41,560.08,982.28z"/>
<path class="st2" d="M501.08,1162.28c-7.27-2-15.94,2.45-17.69,10.05c-3.55,15.36-9.41,28.16-18.44,41.21
	c-4.43,6.4-1.18,16,5.17,19.72c7.25,4.24,15.17,1.17,19.72-5.17c10.25-14.29,17.47-30.96,21.3-48.11
	C512.82,1172.4,508.83,1164.41,501.08,1162.28z"/>
<path class="st2" d="M453.08,1263.28c-7.27-2-15.94,2.45-17.69,10.05c-3.55,15.36-9.41,28.16-18.44,41.21
	c-4.43,6.4-1.18,16,5.17,19.72c7.25,4.24,15.17,1.17,19.72-5.17c10.25-14.29,17.47-30.96,21.3-48.11
	C464.82,1273.4,460.83,1265.41,453.08,1263.28z"/>
<path class="st2" d="M562.08,1072.28c-7.27-2-15.94,2.45-17.69,10.05c-3.55,15.36-9.41,28.16-18.44,41.21
	c-4.43,6.4-1.18,16,5.17,19.72c7.25,4.24,15.17,1.17,19.72-5.17c10.25-14.29,17.47-30.96,21.3-48.11
	C573.82,1082.4,569.83,1074.41,562.08,1072.28z"/>
<path class="st2" d="M622.08,944.28c-7.27-2-15.94,2.45-17.69,10.05c-3.55,15.36-9.41,28.16-18.44,41.21
	c-4.43,6.4-1.18,16,5.17,19.72c7.25,4.24,15.17,1.17,19.72-5.17c10.25-14.29,17.47-30.96,21.3-48.11
	C633.82,954.4,629.83,946.41,622.08,944.28z"/>
<path class="st2" d="M438.08,988.28c-7.27-2-15.94,2.45-17.69,10.05c-3.55,15.36-9.41,28.16-18.44,41.21
	c-4.43,6.4-1.18,16,5.17,19.72c7.25,4.24,15.17,1.17,19.72-5.17c10.25-14.29,17.47-30.96,21.3-48.11
	C449.82,998.4,445.83,990.41,438.08,988.28z"/>
<path class="st2" d="M451.81,894.2c-3.71,13.14-8.75,24.73-15.55,36.56c-9.27,16.12,15.35,30.47,24.9,14.55
	c8.09-13.5,14.22-28.3,18.36-43.47C484.4,883.97,456.83,876.39,451.81,894.2z"/>
<path class="st2" d="M652.81,848.2c-3.71,13.14-8.75,24.73-15.55,36.56c-9.27,16.12,15.35,30.47,24.9,14.55
	c8.09-13.5,14.22-28.3,18.36-43.47C685.4,837.97,657.83,830.39,652.81,848.2z"/>
<path class="st2" d="M578.81,885.2c-3.71,13.14-8.75,24.73-15.55,36.56c-9.27,16.12,15.35,30.47,24.9,14.55
	c8.09-13.5,14.22-28.3,18.36-43.47C611.4,874.97,583.83,867.39,578.81,885.2z"/>
<path class="st2" d="M535.97,833.05c-7.33-2.01-15.83,2.46-17.67,10.03c-2.71,11.11-6.67,19.93-13.14,29.61
	c-4.33,6.47-1.26,15.95,5.17,19.7c7.16,4.19,15.26,1.24,19.7-5.17c7.59-10.94,13.01-23.53,15.98-36.5
	C547.74,843.17,543.69,835.17,535.97,833.05z"/>
<path class="st2" d="M431.97,1089.05c-7.33-2.01-15.83,2.46-17.67,10.03c-2.71,11.11-6.67,19.93-13.14,29.61
	c-4.33,6.47-1.26,15.95,5.17,19.7c7.16,4.19,15.26,1.24,19.7-5.17c7.59-10.94,13.01-23.53,15.98-36.5
	C443.74,1099.17,439.69,1091.17,431.97,1089.05z"/>
<path class="st2" d="M493.97,1049.05c-7.33-2.01-15.83,2.46-17.67,10.03c-2.71,11.11-6.67,19.93-13.14,29.61
	c-4.33,6.47-1.26,15.95,5.17,19.7c7.16,4.19,15.26,1.24,19.7-5.17c7.59-10.94,13.01-23.53,15.98-36.5
	C505.74,1059.17,501.69,1051.17,493.97,1049.05z"/>
<path class="st2" d="M427.97,1182.05c-7.33-2.01-15.83,2.46-17.67,10.03c-2.71,11.11-6.67,19.93-13.14,29.61
	c-4.33,6.47-1.26,15.95,5.17,19.7c7.16,4.19,15.26,1.24,19.7-5.17c7.59-10.94,13.01-23.53,15.98-36.5
	C439.74,1192.17,435.69,1184.17,427.97,1182.05z"/>
<path class="st14" d="M253.8,466.37c-1.07-89.63-3.67-179.29-8.85-268.79c0.07-0.91,0.14-1.82,0.21-2.73
	c-44.44,1.56-182.57,1.09-184.29,1.16c-12.81,0.57-24.27,10.56-24.02,24.02c3.41,182.89,5.94,363.37,6.97,546.29
	c0.61,108.67,0.76,217.34,0.46,326.01c43.7-11.32,84.66-38.34,113.03-72.84c17.73-21.57,31.35-44.77,40.74-71.13
	c10.25-28.78,12.83-60.15,13.35-90.49c0.54-31.55-1.21-63.21,2.37-94.63c2.56-16.03,6.87-31.52,12.86-46.59
	c7.95-17.85,17.66-34.76,27.79-51.44C254.43,580.56,254.28,506.94,253.8,466.37z"/>
<g>
	<path class="st15" d="M826.83,535.07c-35.09-11.22-73.23-6.3-106.28,9.35c-36.36,17.22-63.74,50.32-75.93,88.37
		c-12.63,39.43-8.32,83.91,4.05,122.82c13.92,43.8,37.25,83.66,55.49,125.65c10.56,25.73,18.95,52.33,23.21,79.86
		c1.9,16.79,2.13,33.66,0.32,50.47c-2.1,13.14-5.47,25.99-10.29,38.39c-4.58,9.91-10.11,19.26-16.54,28.1
		c-17.84,21.82-39.99,39.48-61.79,57.2c-24.45,19.87-47.62,40.83-67.97,64.97c-45.38,53.83-84.29,119.67-89.27,191.33
		c-0.1,1.41-0.17,2.84-0.24,4.26c6.29-1.26,12.57-2.53,18.85-3.79c35.15-7.04,70.25-14.3,105.31-21.78
		c34.73-7.42,69.42-15.05,104.06-22.91c17.64-4,35.27-8.06,52.88-12.17c13.85-3.23,28.82-6.31,40.53-14.88
		c8.4-6.15,14.57-13.76,18.02-23.69c3.12-8.97,3.24-18.82,3.41-28.22c0.19-11.08,0.38-22.17,0.58-33.25
		c0.76-6.88,1.13-13.79,1.31-20.58c0.72-27.06,0.51-54.17,0.72-81.24c0.43-55.13,0.86-110.27,1.29-165.4l1.3-167.39
		C830.21,752.16,827.48,593.28,826.83,535.07z"/>
</g>
<path class="st15" d="M1849.27,699.21c-15.28-3.3-29.03-14.91-37.37-27.68c-9.32-14.28-11.41-32.19-10.48-48.86
	c0.83-14.96,3.88-29.74,4.1-44.74c0.02-1.04,0.04-11.7-0.58-11.74c-0.1-0.01,0.3,2.01,0.35,2.26c0.01,0.04,0.01,0.03,0,0
	c-0.02-0.12-0.12-0.57-0.32-1.54c-0.19-0.92-0.34-1.84-0.54-2.75c-0.34-1.59-0.74-3.17-1.18-4.74c-0.56-2-1.2-3.98-1.92-5.93
	c-0.15-0.41-0.31-0.9-0.48-1.38c-0.11-0.2-0.23-0.4-0.31-0.56c-1.63-3.29-3.31-6.52-5.29-9.62c-1.02-1.59-2.11-3.13-3.21-4.66
	c0.92,1.31-1.33-1.64-2.14-2.57c-2.42-2.76-5-5.37-7.73-7.83c-0.85-0.77-1.72-1.52-2.6-2.26c-0.06-0.05-0.16-0.13-0.27-0.23
	c-5.93-1.65-11.88-3.18-17.82-4.6c-18.2-4.34-37.36-7.32-56.09-5.35c-33.59,3.52-65.62,21.04-76.86,54.57
	c-5.24,15.62-4.24,32.77,3.07,47.52c7.05,14.23,20.21,24.65,33.6,32.58c12.67,7.5,26.39,13.07,38.73,21.13
	c11.29,7.37,20.34,16.36,22.4,29.76c1.29,8.4,0.36,17.1,0.67,25.57c0.32,8.59,1.62,17.14,4.97,25.09
	c7.66,18.16,24.18,25.18,42.73,27.15c17.19,1.83,36.15,2.89,52.84-2.38c8.95-2.82,16.94-7.55,24.14-13.36
	c0.1-21.43,0.2-42.52,0.31-62.35C1851.07,699.56,1850.17,699.4,1849.27,699.21z"/>
<path class="st16" d="M829.89,771.95c-0.44-75.76-3.12-227.36-3.12-254.09c0-25-12.75-35.68-19.84-38.8
	c-10.53-4.64-84.79-24.43-150.11-40.9c-9.86,21.82-17.06,44.88-21.87,68.6c-9.86,48.61-14.64,102.73,3.93,149.93
	c9.25,23.52,22.57,45.21,42.06,61.67c18.68,15.78,40.19,28.88,61.75,40.36c23.4,12.46,54.5,25.86,81.09,15.91
	C825.89,773.83,827.92,772.93,829.89,771.95z"/>
<path class="st16" d="M698.39,1174.4c-9.66-16.79-23.87-30.69-38.52-43.12c-8.44-7.16-17.24-14.12-26.62-20.02
	c-8.5-5.34-17.61-9.35-26.91-13.09c-30.62-12.33-64.24-14.35-94.98-26.19c-4.41-2.02-8.71-4.27-12.83-6.86
	c-1.42-0.9-2.79-1.86-4.18-2.81c-2.36-2.03-4.64-4.11-6.8-6.36c-1.27-1.33-2.5-2.69-3.69-4.09c0.18,0.27,0.37,0.56,0.57,0.88
	c-0.21-0.33-0.43-0.65-0.65-0.97c0,0,0,0,0-0.01c-0.8-0.95-1.92-2.72-2.02-2.96c-1.08-1.56-2.16-3.13-3.15-4.76
	c-3.15-5.18-5.87-10.59-8.35-16.12c-11.55-29.04-17.37-59.93-30.08-88.62c-12.94-29.2-35.71-54.2-65.64-66
	c1.33,99.52,2.65,199.03,3.98,298.55c0.97,72.52,1.93,145.05,2.9,217.57c0.09,6.58,4.73,13.4,11.38,14.95
	c18.34,4.25,36.58,2.25,54.89-1.1c17.68-3.24,35.3-6.86,52.92-10.39c35.15-7.04,70.25-14.3,105.31-21.78
	c31.95-6.82,63.85-13.84,95.72-21.03c6.46-20.37,10.84-41.35,13.26-62.93C719.08,1249.8,717.55,1207.71,698.39,1174.4z
	 M412.24,1375.89c0-0.36-0.01-0.73-0.01-1.09c0.43,0.38,0.88,0.75,1.33,1.11C413.12,1375.91,412.68,1375.91,412.24,1375.89z
	 M483.87,1051.86c-1.66-2.55-2.17-3.23-2.1-3.05c0.68,0.98,1.36,1.97,2.02,2.96C483.82,1051.8,483.84,1051.83,483.87,1051.86z"/>
<path class="st15" d="M1659.97,924.72c-4.31-9.61-10.57-19.08-18.5-26.06c-11.53-10.14-24.62-15.27-39.8-16.77
	c-26.85-2.65-51.11,11.71-70.92,28.12c-8.05,6.66-15.4,15.08-24.15,20.81c0.36-0.24,5.9-4.29,1.89-1.49
	c-1.16,0.81-2.29,1.65-3.46,2.45c-2.08,1.41-4.2,2.76-6.37,4.03c-3.55,2.08-7.2,3.96-10.93,5.68c-10.21,3.94-20.77,6.67-31.56,8.41
	c-16.22,1.71-32.49,1.22-48.68-0.66c-20.93-3.15-41.36-8.41-61.81-13.73c-0.03,12.11-0.12,22.85-0.29,31.81
	c-0.83,42.81-1.58,85.62-1.68,128.44c34.79,6.89,70.87,7.47,106.07,1.81c18.64-3,36.5-9.46,55.07-12.65c4.2-0.38,8.39-0.5,12.6-0.24
	c2.52,0.52,5,1.18,7.44,2c0.81,0.41,1.61,0.84,2.39,1.31c0.37,0.22,0.73,0.46,1.08,0.7c0.5,0.53,1.19,1.3,1.8,1.97
	c0.03,0.04,0.05,0.09,0.07,0.12c0.06,0.1,0.1,0.2,0.16,0.3c0.46,1.51,0.83,3.04,1.15,4.58c0.53,7.78,0.1,15.63-0.76,23.38
	c-2.83,17.69-8.17,34.78-14.88,51.37c-8.25,18.95-17.94,37.22-27.73,55.41c-4.78,8.88-9.57,17.76-14.21,26.71
	c1.78,0.04,3.56,0.09,5.34,0.12c45.22,0.96,90.46,1.56,135.69,1.7c4.05,0.01,8.01,0.03,11.89,0.04c5.25-6.64,10.1-13.6,14.53-20.72
	c21.51-34.58,32.11-73.79,36.96-113.87c5.06-41.8,2.48-84.49-1.85-126.25C1674.03,969.48,1669.92,946.88,1659.97,924.72z"/>
<path class="st5" d="M1470.47,410.08c-0.08-0.2-0.16-0.39-0.23-0.59c-0.02-0.05-0.05-0.12-0.07-0.18c-0.04-0.09-0.08-0.19-0.12-0.28
	C1469.43,407.6,1468.43,405.67,1470.47,410.08z"/>
<path class="st17" d="M1902.3,138.51c-33.2,0.27-66.41,0.43-99.62,0.53c-0.88-1.44-2.14-2.62-3.69-3.11
	c-5.52-1.75-11.51-3.65-17.33-3.99c-5.84-0.34-9.38,2.78-11.79,7.18c-37.06,0.05-74.13,0.01-111.19-0.15
	c-24.11-0.1-48.22-0.26-72.32-0.45c-0.14-0.3-0.27-0.6-0.42-0.9c-1.45-2.98-5.57-5.33-8.93-4.32c-4.58,1.38-9.47,2.86-13.85,5.02
	c-49.36-0.44-98.73-1.04-148.09-1.84c-7.81-0.13-15.62-0.27-23.43-0.41c-1.66-2.71-5.48-4.72-8.63-3.77
	c-3.36,1.01-6.9,2.08-10.28,3.43c-31.62-0.6-63.23-1.25-94.84-1.87c-8.62-0.17-8.62,20.6,0,20.83c27.95,0.74,55.9,1.36,83.85,1.9
	c1.56,6.53,3.1,13.07,4.66,19.6c-1.62,0.61-2.62,1.01-2.7,1.11c-3.25,2.05-5.88,4.91-7.25,8.89c-1.77,5.16-0.65,10.69,0.05,15.95
	c0.74,5.55,1.6,11.08,2.59,16.58c1.6,8.88,2.25,22.13,10.45,27.77c4.32,2.97,9.5,2.72,14.31,1.29c5.81-1.72,11.57-3.72,17.3-5.7
	c4.78-1.65,9.54-3.36,14.29-5.12c5.81-2.16,11.98-3.8,14.51-10.11c1.67-4.16,1.14-8.54-0.08-12.77c-1.66-5.74-3.53-11.43-5.29-17.14
	c-1.54-5-3.09-10-4.63-15c-1.59-5.14-3.2-10.45-8.06-13.46c-3.41-2.11-7.45-2.34-11.38-2.16c-0.73-3.02-1.38-6.05-2.06-9.08
	c41.01,0.69,82.02,1.21,123.03,1.66c11.55,0.13,23.1,0.22,34.65,0.33c1.42,5.98,2.84,11.96,4.27,17.94
	c-1.62,0.61-2.62,1.01-2.7,1.11c-3.25,2.05-5.88,4.91-7.25,8.89c-1.77,5.16-0.65,10.69,0.05,15.95c0.74,5.55,1.6,11.08,2.59,16.58
	c1.6,8.88,2.25,22.13,10.45,27.77c4.32,2.97,9.5,2.72,14.31,1.29c5.81-1.72,11.57-3.72,17.3-5.7c4.78-1.65,9.54-3.36,14.29-5.12
	c5.81-2.16,11.98-3.8,14.51-10.11c1.67-4.16,1.14-8.54-0.08-12.77c-1.66-5.74-3.53-11.43-5.29-17.14c-1.54-5-3.09-10-4.63-15
	c-1.59-5.14-3.2-10.45-8.06-13.46c-3.41-2.11-7.45-2.34-11.38-2.16c-0.63-2.58-1.19-5.18-1.77-7.77
	c56.27,0.42,112.53,0.61,168.8,0.56c-0.34,0.89-0.68,1.78-1.02,2.68c-1.68-0.41-2.74-0.64-2.85-0.61c-3.84-0.14-7.63,0.73-11,3.25
	c-4.38,3.26-6.56,8.47-8.95,13.2c-2.52,5-4.92,10.05-7.21,15.16c-3.69,8.23-10.62,19.54-7.03,28.83c1.89,4.89,6.31,7.6,11.09,9.14
	c5.77,1.86,11.65,3.45,17.5,5.05c4.88,1.33,9.78,2.61,14.69,3.83c6.01,1.49,12.04,3.62,17.69-0.17c3.72-2.5,5.76-6.41,7.14-10.59
	c1.87-5.68,3.53-11.43,5.3-17.14c1.54-5,3.09-10,4.63-15c1.59-5.14,3.25-10.43,0.93-15.66c-1.62-3.66-4.83-6.13-8.18-8.2
	c1.75-4.64,3.7-9.2,5.42-13.85c34.2-0.09,68.41-0.27,102.61-0.54C1910.99,159.46,1911.01,138.44,1902.3,138.51z"/>
</svg>
